<svg xmlns="http://www.w3.org/2000/svg" viewBox="0 0 90 25.02" width="90" height="25"><defs><style>.cls-1,.cls-2{fill:#294753}</style></defs><path class="cls-1" d="M25 12.51A12.51 12.51 0 1 1 12.51 0 12.51 12.51 0 0 1 25 12.51"/><path class="cls-2" d="M35.07 6.06a6.15 6.15 0 0 1 3.3.63 3.28 3.28 0 0 1 1.33 2.86 3.36 3.36 0 0 1-1.46 3 5.6 5.6 0 0 1-3.17.63h-1.46V18h-1V6.06zm-1.46 6.34h1.77a4 4 0 0 0 2.35-.51 2.81 2.81 0 0 0 1-2.28 2.81 2.81 0 0 0-1-2.28 4 4 0 0 0-2.35-.51h-1.77zM42.88 5.62v5.33c.19-1 1-1.65 2.46-1.65a2.67 2.67 0 0 1 2.43 1.08 4.5 4.5 0 0 1 .51 2.6v5h-1V13a3.43 3.43 0 0 0-.38-2 2 2 0 0 0-1.81-.82c-2.06 0-2.25 1.65-2.25 2.54V18h-1V5.62zM55 10.31a4.43 4.43 0 0 0-.74-.06c-2 0-2.11 1.62-2.11 2.54V18h-1V9.49h.7l.19 1.59c.32-1.33 1.39-1.65 2.6-1.65H55zM62.16 17.73a6.58 6.58 0 0 1-2.27.38 3.66 3.66 0 0 1-2.87-1 4.91 4.91 0 0 1-1-3.33c0-2.82 1.33-4.44 3.49-4.44a2.75 2.75 0 0 1 2.6 1.46 6.84 6.84 0 0 1 .51 3.11H57c0 2.25 1 3.49 2.89 3.49a5.81 5.81 0 0 0 2.11-.49h.13zm-.57-4.6c0-2-.7-3.08-2.14-3.08s-2.3 1.17-2.43 3.08zM70.66 17.73a6.58 6.58 0 0 1-2.27.38 3.66 3.66 0 0 1-2.87-1 4.91 4.91 0 0 1-1-3.33c0-2.82 1.33-4.44 3.49-4.44a2.74 2.74 0 0 1 2.6 1.46 6.81 6.81 0 0 1 .51 3.11h-5.6c0 2.25 1 3.49 2.89 3.49a5.79 5.79 0 0 0 2.12-.44h.13zm-.57-4.6c0-2-.7-3.08-2.14-3.08s-2.3 1.17-2.43 3.08zM77.76 10.5h-.13a5.31 5.31 0 0 0-1.84-.38c-1.08 0-1.71.51-1.71 1.3 0 2 4 1.51 4 4.35 0 1.65-1.36 2.35-2.93 2.35a4.74 4.74 0 0 1-2.08-.45v-.82h.13a5.35 5.35 0 0 0 2.09.51c1.14 0 1.84-.57 1.84-1.49 0-2.19-4-1.65-4-4.28 0-1.33 1-2.22 2.76-2.22a5.77 5.77 0 0 1 1.87.32zM81.56 7.46h-1.07V6.25h1.08zM81.5 18h-1V9.49h1zM84.54 9.74a7.45 7.45 0 0 1 2.38-.38 3 3 0 0 1 2.57 1A4.59 4.59 0 0 1 90 13v5h-.7l-.3-1.54a2.29 2.29 0 0 1-2.49 1.71c-1.6 0-2.71-.89-2.71-2.38a2.24 2.24 0 0 1 1.46-2.19 10 10 0 0 1 3.74-.4 4.53 4.53 0 0 0-.32-2.25 2 2 0 0 0-1.9-.82 5.64 5.64 0 0 0-2.16.44h-.13zm2.13 7.67a2.14 2.14 0 0 0 2-1.14 4.75 4.75 0 0 0 .33-2.15v-.19c-1.74 0-2.65 0-3.36.41a1.58 1.58 0 0 0-.82 1.44 1.61 1.61 0 0 0 1.81 1.63"/></svg>